<?xml version="1.0" encoding="UTF-8"?>
<svg width="53px" height="53px" viewBox="0 0 53 53" version="1.1" xmlns="http://www.w3.org/2000/svg" xmlns:xlink="http://www.w3.org/1999/xlink">
    <!-- Generator: Sketch 40.3 (33839) - http://www.bohemiancoding.com/sketch -->
    <title>social twitter@1x</title>
    <desc>Created with Sketch.</desc>
    <defs></defs>
    <g id="Symbols" stroke="none" stroke-width="1" fill="none" fill-rule="evenodd">
        <g id="footer-desktop" transform="translate(-519.000000, -24.000000)">
            <g id="social-twitter">
                <g transform="translate(519.000000, 24.000000)">
                    <circle id="Oval-Copy" fill="#1DA1F1" cx="26.5" cy="26.5" r="26.5"></circle>
                    <g transform="translate(15.142857, 15.773810)" id="Capa_1" fill="#FFFFFF">
                        <g>
                            <path d="M26.3918973,2.53261707 C25.4205273,2.96239164 24.3782612,3.25385984 23.2831682,3.38398495 C24.4013326,2.71540367 25.2572595,1.65493997 25.6629277,0.395197978 C24.6140637,1.01434722 23.4563114,1.46392905 22.2227038,1.70764452 C21.2348604,0.655405145 19.8297483,0 18.2712438,0 C15.2812785,0 12.8569718,2.42066297 12.8569718,5.40449812 C12.8569718,5.82768463 12.9047964,6.24101056 12.9971682,6.63625159 C8.49820481,6.41062102 4.50883877,4.25838954 1.83881101,0.987994944 C1.37207903,1.78502203 1.10656404,2.71372436 1.10656404,3.70507792 C1.10656404,5.58069666 2.06309938,7.23563663 3.51439736,8.20386737 C2.6271193,8.17424259 1.79262512,7.93052712 1.06205998,7.52542551 L1.06205998,7.59294245 C1.06205998,10.2112044 2.92894477,12.3963762 5.40435354,12.8937108 C4.95081753,13.0155685 4.47257142,13.0830855 3.97780878,13.0830855 C3.62820182,13.0830855 3.29010899,13.0485089 2.95861414,12.9826282 C3.64795265,15.1315872 5.64679715,16.6942942 8.01504256,16.7371381 C6.16299245,18.1862548 3.82773697,19.0474833 1.29130762,19.0474833 C0.854288136,19.0474833 0.423823514,19.021131 0,18.9733783 C2.39627607,20.5097761 5.24112887,21.4055811 8.29871279,21.4055811 C18.2581341,21.4055811 23.7021187,13.1687303 23.7021187,6.02532667 L23.6839635,5.32548436 C24.7476621,4.56794263 25.667887,3.61616053 26.3918973,2.53261707 L26.3918973,2.53261707 Z" id="Shape"></path>
                        </g>
                    </g>
                </g>
            </g>
        </g>
    </g>
</svg>